<svg width="32" height="32" viewBox="0 0 32 32" fill="none" xmlns="http://www.w3.org/2000/svg">
<g clip-path="url(#clip0_3136_44814)">
<path d="M16 32C24.8366 32 32 24.8366 32 16C32 7.16344 24.8366 0 16 0C7.16344 0 0 7.16344 0 16C0 24.8366 7.16344 32 16 32Z" fill="#6706CE"/>
<path fill-rule="evenodd" clip-rule="evenodd" d="M14.8981 14.2756C16.3755 13.1247 15.7275 11.5497 13.2853 11.8543C10.4571 12.2063 6.85227 14.9716 5.95413 18.2916C5.88053 18.5631 5.82347 18.8393 5.784 19.1183C5.74507 19.3929 5.72427 19.6703 5.7216 19.9476C5.71893 20.2223 5.73493 20.4969 5.76907 20.7689C5.8032 21.0415 5.85653 21.3113 5.928 21.5764C6.00053 21.8447 6.0912 22.1081 6.19947 22.3636C6.31093 22.626 6.44 22.8799 6.5856 23.1241C6.73653 23.378 6.90453 23.6207 7.08693 23.8516C7.70933 24.6399 8.50827 25.3001 9.36053 25.826C9.54507 25.9401 9.74347 26.0505 9.96053 26.0612C10.2773 26.0761 10.5173 25.8244 10.5301 25.5156C10.5349 25.3993 10.5056 25.2895 10.4523 25.1956C9.73653 23.9332 9.14453 22.0591 9.26613 20.8761C9.5696 17.9353 12.5483 16.1055 14.8981 14.2756Z" fill="white"/>
<path fill-rule="evenodd" clip-rule="evenodd" d="M26.6817 19.4047C26.527 19.0361 26.1398 18.8281 25.7478 18.8633C25.4801 18.8873 25.2587 19.0303 25.0785 19.2196C24.7857 19.4847 24.5819 19.8537 24.3622 20.1748C24.103 20.5524 23.8321 20.9225 23.5403 21.2751C22.9643 21.9705 22.3009 22.5972 21.5265 23.0676C20.2129 23.8649 19.0107 24.2473 17.5654 23.5108C16.5078 22.6649 16.8651 21.6655 17.7409 20.8511C19.2385 19.4591 21.0438 18.482 22.4619 16.9876C23.7953 15.5828 24.9713 13.8351 25.2481 11.8793C25.3259 11.3316 25.327 10.7732 25.239 10.226C24.823 7.64948 22.4934 6.01428 20.1409 5.31881C17.1451 4.43348 13.8454 4.69321 11.0123 6.00308C9.84645 6.54228 8.76005 7.26441 7.81552 8.13534C7.39685 8.52148 7.00272 8.93588 6.63685 9.37268C6.04485 10.0804 5.37125 10.9071 5.25605 11.8564C5.18512 12.4425 5.71365 12.8479 6.26885 12.7727C6.64112 12.7225 6.97072 12.498 7.24485 12.2532C7.56325 11.9689 7.85552 11.6532 8.16272 11.3561C9.08965 10.4591 10.0795 9.62441 11.2566 9.07401C12.7558 8.37268 14.4358 8.03135 16.0886 8.20361C17.7649 8.37801 19.8043 9.13374 20.4166 10.8692C21.055 12.6809 19.6843 14.4617 18.4337 15.6191C16.3915 17.5092 12.5142 19.4393 12.9414 22.7759C13.1702 24.5631 14.4561 26.0927 16.1009 26.7737C18.9627 27.9593 22.0603 26.5156 24.0417 24.3108C24.7062 23.6047 25.6619 22.4004 26.5313 20.6063C26.6993 20.258 26.839 19.7796 26.6817 19.4047Z" fill="white"/>
</g>
<defs>
<clipPath id="clip0_3136_44814">
<rect width="32" height="32" fill="white"/>
</clipPath>
</defs>
</svg>
